GRF
version=1
nRows=12
nColumns=19
inDegrees=no
endheader
time	ground_force_vx	ground_force_vy	ground_force_vz	ground_force_px	ground_force_py	ground_force_pz	ground_torque_x	ground_torque_y	ground_torque_z	1_ground_force_vx	1_ground_force_vy	1_ground_force_vz	1_ground_force_px	1_ground_force_py	1_ground_force_pz	1_ground_torque_x	1_ground_torque_y	1_ground_torque_z
      1.75000000	    -43.17104000	    327.49733697	      2.31084504	      0.19012929	     -0.00000000	     -0.06866675	      0.00000000	      0.06549353	     -0.00000000	     45.09271792	    381.69823886	     -2.19656805	     -0.25070588	      0.00000000	     -0.05077529	      0.00000000	      0.90340243	     -0.00000000
      1.75100000	    -43.16783197	    327.51021267	      2.31955138	      0.19011952	     -0.00000000	     -0.06868158	      0.00000000	      0.06619225	     -0.00000000	     45.08907715	    381.66208452	     -2.17891057	     -0.25069590	      0.00000000	     -0.05080171	      0.00000000	      0.90393623	     -0.00000000
      1.75200000	    -43.16466433	    327.52354645	      2.32839389	      0.19010980	     -0.00000000	     -0.06869633	      0.00000000	      0.06699993	     -0.00000000	     45.08493823	    381.62552478	     -2.16151899	     -0.25068594	      0.00000000	     -0.05082812	      0.00000000	      0.90430875	     -0.00000000
      1.75300000	    -43.16154229	    327.53731986	      2.33737975	      0.19010016	     -0.00000000	     -0.06871098	      0.00000000	      0.06791105	     -0.00000000	     45.08030585	    381.58862449	     -2.14442425	     -0.25067598	      0.00000000	     -0.05085450	      0.00000000	      0.90451689	     -0.00000000
      1.75400000	    -43.15847086	    327.55151232	      2.34651661	      0.19009062	     -0.00000000	     -0.06872554	      0.00000000	      0.06891951	     -0.00000000	     45.07518904	    381.55145054	     -2.12765602	     -0.25066603	      0.00000000	     -0.05088084	      0.00000000	      0.90455795	     -0.00000000
      1.75500000	    -43.15545480	    327.56610108	      2.35581252	      0.19008118	     -0.00000000	     -0.06873998	      0.00000000	      0.07001868	     -0.00000000	     45.06960114	    381.51407175	     -2.11124257	     -0.25065607	      0.00000000	     -0.05090712	      0.00000000	      0.90442969	     -0.00000000
      1.75600000	    -43.15249861	    327.58106131	      2.36527584	      0.19007187	     -0.00000000	     -0.06875431	      0.00000000	      0.07120151	     -0.00000000	     45.06355984	    381.47655871	     -2.09521064	     -0.25064609	      0.00000000	     -0.05093333	      0.00000000	      0.90413025	     -0.00000000
      1.75700000	    -43.14960654	    327.59636610	      2.37491506	      0.19006269	     -0.00000000	     -0.06876850	      0.00000000	      0.07246057	     -0.00000000	     45.05708702	    381.43898368	     -2.07958528	     -0.25063609	      0.00000000	     -0.05095946	      0.00000000	      0.90365822	     -0.00000000
      1.75800000	    -43.14678261	    327.61198659	      2.38473871	      0.19005366	     -0.00000000	     -0.06878257	      0.00000000	      0.07378814	     -0.00000000	     45.05020865	    381.40142041	     -2.06438981	     -0.25062604	      0.00000000	     -0.05098549	      0.00000000	      0.90301265	     -0.00000000
      1.75900000	    -43.14403062	    327.62789203	      2.39475518	      0.19004478	     -0.00000000	     -0.06879648	      0.00000000	      0.07517629	     -0.00000000	     45.04295461	    381.36394397	     -2.04964564	     -0.25061596	      0.00000000	     -0.05101141	      0.00000000	      0.90219300	     -0.00000000
      1.76000000	    -43.14135421	    327.64404986	      2.40497264	      0.19003606	     -0.00000000	     -0.06881025	      0.00000000	      0.07661696	     -0.00000000	     45.03535844	    381.32663062	     -2.03537226	     -0.25060581	      0.00000000	     -0.05103721	      0.00000000	      0.90119924	     -0.00000000
      1.76100000	    -43.13875686	    327.66042584	      2.41539879	      0.19002750	     -0.00000000	     -0.06882386	      0.00000000	      0.07810205	     -0.00000000	     45.02745710	    381.28955755	     -2.02158715	     -0.25059560	      0.00000000	     -0.05106289	      0.00000000	      0.90003182	     -0.00000000
